<?xml version="1.0" encoding="UTF-8" standalone="no"?>
<svg
   xmlns:dc="http://purl.org/dc/elements/1.1/"
   xmlns:cc="http://creativecommons.org/ns#"
   xmlns:rdf="http://www.w3.org/1999/02/22-rdf-syntax-ns#"
   xmlns:svg="http://www.w3.org/2000/svg"
   xmlns="http://www.w3.org/2000/svg"
   xmlns:sodipodi="http://sodipodi.sourceforge.net/DTD/sodipodi-0.dtd"
   xmlns:inkscape="http://www.inkscape.org/namespaces/inkscape"
   version="1.1"
   id="Capa_1"
   x="0px"
   y="0px"
   width="108.582px"
   height="108.582px"
   viewBox="0 0 108.582 108.582"
   style="enable-background:new 0 0 108.582 108.582;"
   xml:space="preserve"
   sodipodi:docname="about.svg"
   inkscape:version="1.0.1 (3bc2e813f5, 2020-09-07)"><metadata
   id="metadata51"><rdf:RDF><cc:Work
       rdf:about=""><dc:format>image/svg+xml</dc:format><dc:type
         rdf:resource="http://purl.org/dc/dcmitype/StillImage" /></cc:Work></rdf:RDF></metadata><defs
   id="defs49" /><sodipodi:namedview
   pagecolor="#ffffff"
   bordercolor="#666666"
   borderopacity="1"
   objecttolerance="10"
   gridtolerance="10"
   guidetolerance="10"
   inkscape:pageopacity="0"
   inkscape:pageshadow="2"
   inkscape:window-width="1360"
   inkscape:window-height="705"
   id="namedview47"
   showgrid="false"
   inkscape:zoom="4.9547807"
   inkscape:cx="54.291"
   inkscape:cy="54.291"
   inkscape:window-x="-8"
   inkscape:window-y="-8"
   inkscape:window-maximized="1"
   inkscape:current-layer="g14" />
<g
   id="g14">
	<g
   id="g12">
		<path
   d="M78.119,73.246c-6.566-3.363-13.357-6.156-20.227-8.791c-0.513-0.193-1.123-0.588-1.336-1.035    c-0.562-1.24-0.947-2.555-1.354-3.85c-0.248-0.836-0.471-1.615-1.379-2.021c-0.248-0.106-0.471-0.584-0.471-0.895    c0.055-3.016-0.648-6.182,1.592-8.813c0.068-0.082,0.098-0.197,0.145-0.295c1.209-2.639,1.414-5.66,3.104-8.121    c0.043-0.053,0.053-0.135,0.061-0.205c0.197-1.883,0.396-3.748,0.559-5.623c0.017-0.23-0.186-0.645-0.387-0.717    c-0.928-0.324-0.879-1.076-0.873-1.82c0-3.664,0-4.195-0.006-7.859c0-2.131-0.627-4.021-2.234-5.473    c-1.835-1.646-3.718-3.24-5.604-4.83c-0.904-0.77-0.99-1.363-0.135-2.207c0.379-0.375,0.857-0.645,1.297-0.957    c-0.098-0.145-0.193-0.287-0.287-0.432c-0.57,0-1.143-0.074-1.693,0.008c-2.086,0.338-4.18,0.633-6.223,1.113    c-3.908,0.922-7.703,2.143-10.871,4.76c-2.164,1.785-3.895,3.867-4.115,6.813c-0.109,1.543-0.096,3.098-0.109,4.637    c-0.012,2.521,0.023,1.908-0.031,4.418c-0.014,0.41-0.238,1.084-0.525,1.174c-1.016,0.332-1.049,0.982-0.908,1.83    c0.1,0.584,0.025,1.191,0.152,1.762c0.35,1.574,0.725,3.148,1.178,4.695c0.334,1.154,0.988,2.244,1.176,3.416    c0.359,2.344,1.234,4.381,2.818,6.152c0.256,0.295,0.453,0.783,0.424,1.174c-0.125,1.797-0.311,3.604-0.555,5.396    c-0.051,0.348-0.416,0.871-0.713,0.938c-1.201,0.244-1.383,1.166-1.672,2.104c-0.373,1.232-0.777,2.461-1.254,3.652    c-0.148,0.373-0.521,0.758-0.889,0.926c-2.127,0.922-4.299,1.777-6.445,2.679c-2.281,0.959-4.588,1.877-6.818,2.936    c-2.299,1.103-4.531,2.337-6.779,3.546c-1.326,0.707-2.563,1.493-3.598,2.467L0,89.236c15.256,0,23.221,11.031,39.098,12.391    l-5.85-8.072l9.07-24.811l-2.805-6.025h5.619l-2.814,6.025l9.072,24.811l-5.695,7.877c11.559-1.936,30.006-12.195,38.956-12.195    L81.52,75.73C80.559,74.746,79.428,73.918,78.119,73.246z"
   id="path2" />
		<path
   d="M89.391,6.955c-10.582,0-19.19,8.609-19.19,19.191c0,0.418,0.016,0.84,0.045,1.273l-8.81,5.725    c-0.526,0.344-0.801,0.967-0.692,1.586c0.104,0.621,0.569,1.117,1.182,1.266l13.445,3.246c3.627,3.879,8.707,6.094,14.021,6.094    c10.582,0,19.191-8.607,19.191-19.189S99.973,6.955,89.391,6.955z M89.391,42.187c-4.582,0-8.957-1.971-12.004-5.406    c-0.213-0.24-0.496-0.41-0.809-0.486l-10.361-2.502l6.541-4.25c0.502-0.326,0.775-0.908,0.707-1.502    c-0.078-0.67-0.117-1.289-0.117-1.895c0-8.846,7.197-16.043,16.043-16.043s16.043,7.197,16.043,16.043    S98.236,42.187,89.391,42.187z"
   id="path4" />
		<path
   d="M83.561,25.6h-2.664c-0.184,0-0.334,0.15-0.334,0.334v8.883c0,0.184,0.15,0.332,0.334,0.332h2.664    c0.187,0,0.334-0.148,0.334-0.332v-8.883C83.895,25.75,83.746,25.6,83.561,25.6z"
   id="path6" />
		<path
   d="M90.473,21.936h-2.664c-0.186,0-0.334,0.15-0.334,0.334v12.547c0,0.184,0.148,0.332,0.334,0.332h2.664    c0.185,0,0.334-0.148,0.334-0.332V22.27C90.807,22.086,90.656,21.936,90.473,21.936z"
   id="path8" />
		<path
   d="M97.08,14.816h-2.666c-0.184,0-0.332,0.148-0.332,0.332v19.668c0,0.184,0.148,0.332,0.332,0.332h2.666    c0.184,0,0.332-0.148,0.332-0.332V15.148C97.412,14.965,97.264,14.816,97.08,14.816z"
   id="path10" />
	</g>
<path
   style="fill:#ff6600;stroke-width:0.201825"
   d="m 37.640415,101.37916 c -1.355949,-0.17575 -3.940879,-0.73325 -5.651108,-1.21878 C 28.671776,99.218531 26.656853,98.367315 19.072489,94.703594 13.439278,91.982404 10.946276,90.957651 8.1739238,90.223717 6.0695728,89.666625 3.0492571,89.20946 1.4632333,89.207965 c -0.69377442,-6.56e-4 -1.26140802,-0.0846 -1.26140802,-0.186554 0,-0.541775 3.05718682,-13.02875 3.24533352,-13.255452 1.0727478,-1.292582 9.6355842,-5.670933 17.3408452,-8.866723 3.385619,-1.4042 6.326877,-2.718692 6.536128,-2.921094 0.209252,-0.202403 0.799591,-1.579301 1.311864,-3.059777 0.859889,-2.48508 0.984017,-2.718035 1.61655,-3.033811 0.376828,-0.188121 0.772559,-0.429456 0.879399,-0.536296 0.231247,-0.231248 0.740566,-4.099269 0.749884,-5.694991 0.0059,-1.003088 -0.08107,-1.2415 -0.807806,-2.215549 -1.112414,-1.490972 -1.735905,-2.878588 -2.232014,-4.967469 -0.230658,-0.971194 -0.636692,-2.314874 -0.902298,-2.985955 -0.714288,-1.804733 -1.702425,-6.090661 -1.702425,-7.384078 0,-1.035955 0.05789,-1.179671 0.706389,-1.753814 l 0.706388,-0.625387 0.004,-4.306011 c 0.0062,-6.69347 0.348562,-8.082327 2.588818,-10.502543 3.511038,-3.793074 8.317666,-5.844108 16.883325,-7.2042703 3.261155,-0.5178473 4.295621,-0.3568983 2.921859,0.4546023 -0.824846,0.487249 -1.279857,1.222702 -1.128805,1.824539 0.07457,0.297128 1.407768,1.594036 3.427968,3.334673 5.101114,4.395198 4.991872,4.147774 5.154793,11.675225 l 0.119099,5.502838 0.56743,0.451998 0.567432,0.451996 -0.298643,2.848077 c -0.251329,2.396853 -0.393442,3.036205 -0.897008,4.035517 -0.329101,0.653091 -0.979868,2.413528 -1.446147,3.91208 -0.482986,1.552241 -1.18088,3.289131 -1.621894,4.036506 -1.069491,1.812435 -1.207997,2.490564 -1.209287,5.920611 l -0.0012,2.994147 0.700231,0.619938 c 0.579582,0.513121 0.845503,1.055853 1.543346,3.149898 0.469732,1.409539 1.036334,2.723182 1.279413,2.96626 0.239966,0.239964 2.066105,1.075521 4.05809,1.856793 9.261906,3.632586 17.846726,7.666708 19.56442,9.193581 l 1.009127,0.897023 1.533381,6.635684 1.533382,6.635684 -1.432469,0.139346 c -3.283227,0.319383 -7.74138,1.696544 -16.569365,5.118423 -8.557382,3.316986 -12.764886,4.850493 -15.439634,5.627268 -2.854564,0.829002 -4.607885,1.224942 -4.758289,1.074532 -0.0626,-0.0626 1.086139,-1.768304 2.552753,-3.790454 l 2.66656,-3.676637 -2.991959,-8.200085 C 46.885211,80.888208 44.840877,75.296096 43.987826,72.971337 l -1.551003,-4.226833 1.268141,-2.675208 c 1.868306,-3.941117 2.046429,-3.503459 -1.425787,-3.503459 -1.643923,0 -2.927011,0.07978 -2.889609,0.179663 0.037,0.09881 0.684222,1.485361 1.438267,3.081214 l 1.370995,2.901549 -4.463719,12.207053 c -2.455045,6.713877 -4.474622,12.343283 -4.487948,12.509789 -0.01332,0.166506 1.066967,1.80129 2.400651,3.632855 3.092686,4.24722 3.223749,4.44835 2.87357,4.40992 -0.151522,-0.0166 -0.547958,-0.0656 -0.880969,-0.10872 z"
   id="path53" /><path
   style="fill:#ff6600;stroke-width:0.201825"
   d="m 87.683763,34.863348 c -0.05366,-0.139838 -0.07352,-3.068828 -0.04412,-6.508865 l 0.05344,-6.254615 1.463234,-0.0593 1.463233,-0.0593 v 6.568163 6.568164 h -1.41911 c -0.95497,0 -1.451022,-0.08316 -1.516677,-0.254251 z"
   id="path55" /><path
   style="fill:#ff6600;stroke-width:0.201825"
   d="M 94.252406,25.035177 V 14.935071 h 1.515574 1.515573 l -0.05234,10.040807 -0.05234,10.040808 -1.463233,0.0593 -1.463233,0.0593 z"
   id="path57" /><path
   style="fill:#ff6600;stroke-width:0.201825"
   d="m 80.872928,34.991315 c -0.07855,-0.07855 -0.142816,-2.22055 -0.142816,-4.760002 v -4.617186 l 1.463233,0.0593 1.463234,0.0593 v 4.641982 4.641981 l -1.320417,0.05872 c -0.72623,0.0323 -1.384685,-0.0055 -1.463234,-0.08409 z"
   id="path59" /><path
   style="fill:#ff6600;stroke-width:0.201825"
   d="M 85.573919,44.818125 C 82.391544,44.145972 79.558154,42.71985 76.76839,40.386062 L 75.225324,39.095206 68.643299,37.504883 C 65.023185,36.630205 61.90134,35.865041 61.705866,35.804515 61.510392,35.74399 61.211528,35.425808 61.041725,35.097444 60.49377,34.037815 60.864144,33.67563 65.758234,30.485208 l 4.504262,-2.936293 0.07471,-1.917223 c 0.336398,-8.632327 6.020197,-15.7202779 14.429409,-17.994117 2.454698,-0.6637469 6.805879,-0.6602325 9.283862,0.0075 3.320805,0.8948431 6.105863,2.472616 8.544313,4.840479 1.80721,1.75489 2.96909,3.394186 4.04612,5.708691 1.08818,2.338464 1.52506,3.926305 1.70252,6.187807 0.48209,6.143703 -1.52904,11.390779 -5.97945,15.600525 -1.9629,1.856758 -3.200993,2.672772 -5.683966,3.746265 -3.305836,1.429252 -7.533365,1.843888 -11.106098,1.089285 z m 7.788445,-3.044912 C 104.4065,38.948792 109.09134,25.98023 102.43649,16.654283 100.56106,14.026113 97.760755,11.974482 94.500508,10.840032 92.966143,10.306126 92.3857,10.215057 90.00402,10.134545 c -2.32803,-0.0787 -2.987238,-0.02858 -4.432969,0.337013 -3.18359,0.805062 -5.759917,2.328733 -8.016557,4.741088 -1.597619,1.70786 -2.697368,3.583813 -3.5051,5.979008 -0.570532,1.691818 -0.654476,2.225951 -0.713671,4.541069 -0.0369,1.443051 -0.112807,2.816989 -0.168689,3.053193 -0.0679,0.287026 -1.223605,1.150693 -3.484516,2.60402 -3.913673,2.51573 -3.584381,2.281607 -3.428418,2.437569 0.06748,0.06748 2.493985,0.693252 5.392242,1.390613 l 5.269557,1.267931 1.251174,1.19423 c 2.210089,2.109502 4.394618,3.346978 7.209182,4.0838 2.134375,0.558757 5.820472,0.562973 7.986109,0.0091 z"
   id="path61" /></g>
<g
   id="g16">
</g>
<g
   id="g18">
</g>
<g
   id="g20">
</g>
<g
   id="g22">
</g>
<g
   id="g24">
</g>
<g
   id="g26">
</g>
<g
   id="g28">
</g>
<g
   id="g30">
</g>
<g
   id="g32">
</g>
<g
   id="g34">
</g>
<g
   id="g36">
</g>
<g
   id="g38">
</g>
<g
   id="g40">
</g>
<g
   id="g42">
</g>
<g
   id="g44">
</g>
</svg>
