<?xml version="1.0" encoding="UTF-8" standalone="no"?>
<svg
   xmlns:dc="http://purl.org/dc/elements/1.1/"
   xmlns:cc="http://creativecommons.org/ns#"
   xmlns:rdf="http://www.w3.org/1999/02/22-rdf-syntax-ns#"
   xmlns:svg="http://www.w3.org/2000/svg"
   xmlns="http://www.w3.org/2000/svg"
   xmlns:sodipodi="http://sodipodi.sourceforge.net/DTD/sodipodi-0.dtd"
   xmlns:inkscape="http://www.inkscape.org/namespaces/inkscape"
   id="Layer_5"
   enable-background="new 0 0 64 64"
   height="512"
   viewBox="0 0 64 64"
   width="512"
   version="1.1"
   sodipodi:docname="contato.svg"
   inkscape:version="1.0.1 (3bc2e813f5, 2020-09-07)">
  <metadata
     id="metadata33">
    <rdf:RDF>
      <cc:Work
         rdf:about="">
        <dc:format>image/svg+xml</dc:format>
        <dc:type
           rdf:resource="http://purl.org/dc/dcmitype/StillImage" />
      </cc:Work>
    </rdf:RDF>
  </metadata>
  <defs
     id="defs31" />
  <sodipodi:namedview
     pagecolor="#ffffff"
     bordercolor="#666666"
     borderopacity="1"
     objecttolerance="10"
     gridtolerance="10"
     guidetolerance="10"
     inkscape:pageopacity="0"
     inkscape:pageshadow="2"
     inkscape:window-width="1360"
     inkscape:window-height="705"
     id="namedview29"
     showgrid="false"
     inkscape:zoom="1.0507812"
     inkscape:cx="256"
     inkscape:cy="256"
     inkscape:window-x="-8"
     inkscape:window-y="-8"
     inkscape:window-maximized="1"
     inkscape:current-layer="Layer_5" />
  <path
     style="fill:#ff6600;stroke-width:0.951673"
     d="m 160.68764,325.17698 c -17.19951,-5.23123 -30.66761,-18.06363 -37.21371,-35.45716 -1.97628,-5.25116 -2.14568,-7.4703 -2.42532,-31.77209 -0.32551,-28.28855 -0.14887,-29.48406 4.72921,-32.00662 4.60357,-2.38059 6.93239,-1.57686 19.50263,6.73083 l 12.22141,8.07715 28.0118,0.0121 c 26.42847,0.0114 28.24335,0.12417 32.10824,1.99513 5.27566,2.5539 11.43757,9.57378 12.78603,14.5663 1.70563,6.31498 0.54457,25.57351 -1.96986,32.67381 -5.58678,15.77612 -19.75216,29.70638 -35.24848,34.66343 -9.66652,3.09217 -23.32131,3.30944 -32.50195,0.51715 z"
     id="path35"
     transform="scale(0.125)" />
  <path
     style="fill:#ff6600;stroke-width:0.951673"
     d="m 245.70929,249.67122 c -4.18061,-11.35335 -13.92534,-20.51231 -25.69051,-24.1462 -5.42744,-1.67637 -8.87832,-1.8819 -31.59699,-1.8819 H 162.91767 L 152.59638,216.827 c -14.28741,-9.43532 -20.22398,-10.98211 -30.47053,-7.93922 -5.73853,1.70416 -12.86379,7.66426 -15.78747,13.20582 -1.77084,3.35645 -2.14626,5.99225 -2.57732,18.09546 l -0.50455,14.16676 -4.027012,-7.04869 c -9.019895,-15.78801 -12.881596,-35.9365 -9.396408,-49.02591 1.934031,-7.26369 5.985745,-14.04842 11.50883,-19.27193 5.68331,-5.37503 10.60605,-8.09726 18.23693,-10.08485 4.26892,-1.11192 6.05078,-2.18373 8.29864,-4.99175 9.995,-12.48575 24.52007,-21.7366 40.26497,-25.64432 9.69797,-2.40693 31.68621,-2.16441 41.35466,0.45613 25.19323,6.82837 45.02994,26.56227 51.85883,51.59007 2.48285,9.0996 2.24588,27.48082 -0.48462,37.59108 -2.03025,7.51744 -8.02948,20.73108 -11.38512,25.07643 l -1.72695,2.23627 z"
     id="path37"
     transform="scale(0.125)" />
  <path
     style="fill:#ff6600;stroke-width:0.118959"
     d="m 46.110644,38.98746 c 0.139963,-0.08102 1.33555,-1.445452 2.656863,-3.03207 l 2.402386,-2.884757 h 2.963955 c 1.81894,0 2.963955,-0.04422 2.963955,-0.114458 0,-0.06295 0.49028,-0.627299 1.08951,-1.254104 1.105933,-1.156825 2.554673,-2.230677 3.758074,-2.785602 l 0.624536,-0.287993 -0.0026,-3.578178 c -0.0023,-3.207998 -0.0251,-3.62768 -0.219969,-4.056655 -0.284576,-0.626452 -0.893169,-1.224464 -1.560469,-1.533343 -0.531499,-0.246019 -0.638314,-0.248404 -11.124012,-0.248404 -10.485699,0 -10.592514,0.0024 -11.124012,0.248404 -0.667301,0.308879 -1.275893,0.906891 -1.56047,1.533343 -0.198257,0.436431 -0.217586,0.879721 -0.21997,5.0446 -0.0018,3.244265 0.03927,4.707871 0.142057,5.055762 0.19306,0.653424 1.178535,1.638899 1.831958,1.831959 0.322568,0.09531 1.428654,0.144669 3.241637,0.144669 h 2.751997 v 2.669946 c 0,2.600771 0.0069,2.677706 0.267658,2.969499 0.325273,0.364033 0.774516,0.475601 1.11693,0.277382 z m -3.525852,-8.831326 v -1.011153 h 7.078067 7.078068 v 1.011153 1.011152 h -7.078068 -7.078067 z m -3.92565,0 v -1.011153 h 1.011152 1.011153 v 1.011153 1.011152 h -1.011153 -1.011152 z m 0,-3.98513 v -1.070633 h 11.003717 11.003718 v 1.070633 1.070631 H 49.662859 38.659142 Z m 0,-4.04461 v -1.070631 h 11.003717 11.003718 v 1.070631 1.070632 H 49.662859 38.659142 Z"
     id="path45" />
  <path
     style="fill:#ff6600;stroke-width:0.951673"
     d="m 216.2146,433.24907 c 10.94838,-29.70409 20.27633,-54.38003 20.72878,-54.83542 1.1752,-1.18285 28.10935,5.41776 36.69891,8.9936 26.46678,11.01815 46.09817,34.90418 51.93688,63.19297 1.25398,6.07556 1.77494,12.68153 1.78379,22.61911 l 0.0125,14.03718 h -23.31598 -23.31599 v -23.79183 -23.79182 h -8.56505 -8.56506 v 23.79182 23.79183 h -33.65246 -33.65247 z"
     id="path47"
     transform="scale(0.125)" />
  <path
     style="fill:#ff6600;stroke-width:0.951673"
     d="m 195.7169,404.04705 c -4.53054,-6.03171 -8.23735,-11.41274 -8.23735,-11.95783 0,-0.54509 3.65321,-5.85476 8.11823,-11.79925 l 8.11824,-10.80817 7.82228,1.93038 c 4.30226,1.06171 7.94161,2.02085 8.08743,2.13142 0.38517,0.29206 -14.15565,39.81657 -14.97851,40.71423 -0.38114,0.41578 -4.39979,-4.17907 -8.93032,-10.21078 z"
     id="path49"
     transform="scale(0.125)" />
  <path
     style="fill:#ff6600;stroke-width:0.951673"
     d="m 160.97474,452.26708 c -3.32412,-9.03749 -5.80813,-17.04608 -5.52002,-17.79687 0.8216,-2.14106 19.80171,-27.15422 20.60476,-27.15422 0.61311,0 18.14257,22.78567 20.3905,26.50458 0.48357,0.80001 -1.51231,7.58207 -5.28636,17.96321 l -6.06325,16.67796 -0.2814,-6.30522 -0.2814,-6.30522 h -8.47809 -8.47809 l -0.2814,6.42379 -0.2814,6.42379 z m 23.6498,-20.2076 v -8.56506 h -8.56506 -8.56506 v 8.56506 8.56506 h 8.56506 8.56506 z"
     id="path51"
     transform="scale(0.125)" />
  <path
     style="fill:#ff6600;stroke-width:0.951673"
     d="m 146.2133,411.98255 c -3.1875,-7.81577 -14.07693,-38.14013 -13.78136,-38.37766 0.17953,-0.14428 3.84645,-1.131 8.14871,-2.19271 l 7.82229,-1.93038 8.11824,10.80817 c 4.46502,5.94449 8.11823,11.17168 8.11823,11.61596 0,0.65101 -14.88404,21.09459 -16.62693,22.83747 -0.26301,0.26302 -1.07264,-0.97937 -1.79918,-2.76085 z"
     id="path53"
     transform="scale(0.125)" />
  <path
     style="fill:#ff6600;stroke-width:0.951673"
     d="m 168.07333,367.1746 -7.24062,-9.68785 v -7.22124 -7.22124 l 7.61339,0.90178 c 4.79477,0.56792 10.43199,0.56792 15.22676,0 l 7.61339,-0.90178 v 7.03944 7.03945 l -7.34111,9.86965 c -4.03761,5.4283 -7.63137,9.86964 -7.98615,9.86964 -0.35477,0 -3.90332,-4.35953 -7.88566,-9.68785 z"
     id="path55"
     transform="scale(0.125)" />
  <path
     style="fill:#ff6600;stroke-width:0.951673"
     d="m 173.83667,486.55785 c -0.55982,-0.90581 -5.39057,-13.60027 -5.39057,-14.16558 0,-0.19939 3.41882,-0.36253 7.59738,-0.36253 h 7.59738 l -2.66879,7.37546 c -2.05229,5.67174 -3.12703,7.443 -4.65256,7.66781 -1.09108,0.16079 -2.20836,-0.071 -2.48284,-0.51516 z"
     id="path57"
     transform="scale(0.125)" />
  <path
     style="fill:#ff6600;stroke-width:0.951673"
     d="m 24.743494,473.1562 c 0,-20.02141 2.134982,-30.06782 9.542508,-44.90341 8.784129,-17.59261 22.862783,-31.01767 41.664697,-39.73043 8.241331,-3.81901 37.874191,-11.48458 39.171911,-10.13317 0.83726,0.87189 40.00007,106.70896 40.00007,108.09975 0,0.42217 -14.98885,0.76757 -33.30855,0.76757 H 88.505576 V 463.46468 439.67286 H 79.94052 71.375465 v 23.79182 23.79183 H 48.05948 24.743494 Z"
     id="path59"
     transform="scale(0.125)" />
</svg>
